<mxfile host="app.diagrams.net" modified="2024-06-14T01:37:39.684Z" agent="Mozilla/5.0 (Macintosh; Intel Mac OS X 10_15_7) AppleWebKit/537.36 (KHTML, like Gecko) Chrome/125.0.0.0 Safari/537.36" version="24.4.15" etag="pzGa4jCHWxGh2t-Qce1o" type="github">
  <diagram name="第 1 页" id="zzUtusFye2g_xGzoyzsY">
    <mxGraphModel>
      <root>
        <mxCell id="0" />
        <mxCell id="1" parent="0" />
      </root>
    </mxGraphModel>
  </diagram>
</mxfile>
